<svg xmlns="http://www.w3.org/2000/svg" xmlns:xlink="http://www.w3.org/1999/xlink" width="500" zoomAndPan="magnify" viewBox="0 0 375 374.999991" height="500" preserveAspectRatio="xMidYMid meet" version="1.0"><defs><g/><clipPath id="74fb8252cb"><path d="M 26.429688 21.492188 L 358.3125 21.492188 L 358.3125 353.378906 L 26.429688 353.378906 Z M 26.429688 21.492188 " clip-rule="nonzero"/></clipPath><clipPath id="fb902862bb"><path d="M 192.371094 21.492188 C 100.722656 21.492188 26.429688 95.789062 26.429688 187.433594 C 26.429688 279.082031 100.722656 353.378906 192.371094 353.378906 C 284.019531 353.378906 358.3125 279.082031 358.3125 187.433594 C 358.3125 95.789062 284.019531 21.492188 192.371094 21.492188 Z M 192.371094 21.492188 " clip-rule="nonzero"/></clipPath></defs><g clip-path="url(#74fb8252cb)"><g clip-path="url(#fb902862bb)"><path fill="#ff3131" d="M 26.429688 21.492188 L 358.3125 21.492188 L 358.3125 353.378906 L 26.429688 353.378906 Z M 26.429688 21.492188 " fill-opacity="1" fill-rule="nonzero"/></g></g><g fill="#efe8dd" fill-opacity="1"><g transform="translate(96.241937, 288.801738)"><g><path d="M 104.0625 -93.078125 C 106.132812 -93.828125 108.296875 -94.296875 110.546875 -94.484375 C 112.804688 -94.671875 115.160156 -94.765625 117.609375 -94.765625 C 123.617188 -94.765625 129.867188 -94.148438 136.359375 -92.921875 C 142.847656 -91.703125 149.382812 -90.625 155.96875 -89.6875 C 160.101562 -89.125 163.816406 -88.085938 167.109375 -86.578125 C 170.398438 -85.078125 172.046875 -81.601562 172.046875 -76.15625 C 172.046875 -72.769531 170.304688 -69.945312 166.828125 -67.6875 C 163.347656 -65.425781 159.488281 -63.734375 155.25 -62.609375 C 151.019531 -61.484375 147.6875 -60.921875 145.25 -60.921875 C 143.550781 -60.921875 141.804688 -61.015625 140.015625 -61.203125 C 138.234375 -61.390625 136.5 -61.484375 134.8125 -61.484375 C 127.851562 -61.484375 121.128906 -60.726562 114.640625 -59.21875 C 108.160156 -57.71875 101.628906 -56.875 95.046875 -56.6875 C 88.460938 -55.9375 84.132812 -53.726562 82.0625 -50.0625 C 80 -46.394531 78.96875 -41.457031 78.96875 -35.25 C 78.96875 -29.425781 79.765625 -23.925781 81.359375 -18.75 C 82.960938 -13.582031 83.765625 -8.273438 83.765625 -2.828125 C 83.765625 1.128906 82.773438 5.082031 80.796875 9.03125 C 78.828125 12.976562 76.148438 16.265625 72.765625 18.890625 C 69.378906 21.523438 65.429688 22.84375 60.921875 22.84375 C 56.410156 22.84375 52.789062 21.101562 50.0625 17.625 C 47.332031 14.144531 45.257812 9.914062 43.84375 4.9375 C 42.4375 -0.0390625 41.5 -4.972656 41.03125 -9.859375 C 40.5625 -14.753906 40.328125 -18.707031 40.328125 -21.71875 C 40.328125 -24.914062 40.515625 -28.015625 40.890625 -31.015625 C 41.265625 -34.023438 41.453125 -37.035156 41.453125 -40.046875 C 41.453125 -46.066406 40.414062 -50.769531 38.34375 -54.15625 C 36.28125 -57.539062 34.164062 -60.40625 32 -62.75 C 29.84375 -65.101562 28.765625 -67.691406 28.765625 -70.515625 C 28.765625 -73.890625 29.65625 -77.316406 31.4375 -80.796875 C 33.226562 -84.273438 35.015625 -88.128906 36.796875 -92.359375 C 38.585938 -96.597656 39.484375 -101.347656 39.484375 -106.609375 C 39.484375 -110.929688 38.960938 -114.972656 37.921875 -118.734375 C 36.890625 -122.492188 33.929688 -125.597656 29.046875 -128.046875 C 20.960938 -132.179688 16.921875 -137.253906 16.921875 -143.265625 C 16.921875 -144.773438 17.203125 -146.609375 17.765625 -148.765625 C 18.328125 -150.929688 19.269531 -153.050781 20.59375 -155.125 C 24.351562 -160.945312 27.78125 -166.628906 30.875 -172.171875 C 33.976562 -177.722656 35.625 -184.257812 35.8125 -191.78125 C 36.1875 -196.101562 37.785156 -199.722656 40.609375 -202.640625 C 43.429688 -205.554688 46.910156 -207.015625 51.046875 -207.015625 C 53.867188 -207.015625 56.878906 -206.445312 60.078125 -205.3125 C 63.273438 -204.1875 66.28125 -203.625 69.09375 -203.625 C 79.4375 -203.625 89.585938 -204.890625 99.546875 -207.421875 C 109.515625 -209.960938 119.625 -212.503906 129.875 -215.046875 C 140.125 -217.585938 150.609375 -218.859375 161.328125 -218.859375 C 166.398438 -218.859375 171.988281 -217.867188 178.09375 -215.890625 C 184.207031 -213.921875 189.472656 -211.335938 193.890625 -208.140625 C 198.316406 -204.941406 200.53125 -201.367188 200.53125 -197.421875 C 200.53125 -193.097656 199.351562 -189.617188 197 -186.984375 C 194.644531 -184.347656 191.867188 -182.46875 188.671875 -181.34375 C 185.484375 -180.21875 182.382812 -179.65625 179.375 -179.65625 C 178.25 -179.65625 177.117188 -179.703125 175.984375 -179.796875 C 174.859375 -179.890625 173.734375 -180.125 172.609375 -180.5 C 168.273438 -182 163.992188 -183.078125 159.765625 -183.734375 C 155.535156 -184.398438 151.351562 -184.734375 147.21875 -184.734375 C 144.019531 -184.734375 139.644531 -184.5 134.09375 -184.03125 C 128.550781 -183.5625 122.722656 -182.710938 116.609375 -181.484375 C 110.503906 -180.265625 104.675781 -178.617188 99.125 -176.546875 C 93.582031 -174.484375 89.070312 -171.898438 85.59375 -168.796875 C 82.113281 -165.691406 80.375 -161.976562 80.375 -157.65625 C 80.375 -155.582031 80.609375 -152.757812 81.078125 -149.1875 C 81.554688 -145.625 81.796875 -142.242188 81.796875 -139.046875 C 81.796875 -135.097656 81.320312 -130.910156 80.375 -126.484375 C 79.4375 -122.066406 78.5 -117.976562 77.5625 -114.21875 C 76.625 -110.457031 76.15625 -107.359375 76.15625 -104.921875 C 76.15625 -99.835938 78.222656 -96.59375 82.359375 -95.1875 C 86.492188 -93.78125 93.726562 -93.078125 104.0625 -93.078125 Z M 104.0625 -93.078125 "/></g></g></g></svg>