<svg xmlns="http://www.w3.org/2000/svg" xmlns:xlink="http://www.w3.org/1999/xlink" width="500" zoomAndPan="magnify" viewBox="0 0 375 374.999991" height="500" preserveAspectRatio="xMidYMid meet" version="1.0"><defs><g/><clipPath id="a1ec66145f"><path d="M 37.628906 44.644531 L 337.628906 44.644531 L 337.628906 344.644531 L 37.628906 344.644531 Z M 37.628906 44.644531 " clip-rule="nonzero"/></clipPath><clipPath id="f9e6338478"><path d="M 187.628906 344.644531 C 147.578125 344.644531 109.871094 329.054688 81.574219 300.699219 C 53.214844 272.402344 37.628906 234.691406 37.628906 194.644531 C 37.628906 154.597656 53.214844 116.886719 81.574219 88.589844 C 109.871094 60.230469 147.578125 44.644531 187.628906 44.644531 C 227.675781 44.644531 265.386719 60.230469 293.683594 88.589844 C 322.039062 116.945312 337.628906 154.597656 337.628906 194.644531 C 337.628906 234.691406 322.039062 272.402344 293.683594 300.699219 C 265.386719 329.054688 227.675781 344.644531 187.628906 344.644531 Z M 187.628906 53.636719 C 149.976562 53.636719 114.546875 68.324219 87.925781 94.945312 C 61.308594 121.5625 46.621094 156.996094 46.621094 194.644531 C 46.621094 232.292969 61.308594 267.726562 87.925781 294.34375 C 114.546875 320.964844 149.976562 335.652344 187.628906 335.652344 C 225.277344 335.652344 260.710938 320.964844 287.328125 294.34375 C 313.945312 267.726562 328.636719 232.292969 328.636719 194.644531 C 328.636719 156.996094 313.945312 121.5625 287.328125 94.945312 C 260.710938 68.324219 225.277344 53.636719 187.628906 53.636719 Z M 187.628906 53.636719 " clip-rule="nonzero"/></clipPath></defs><g clip-path="url(#a1ec66145f)"><g clip-path="url(#f9e6338478)"><path fill="#004aad" d="M 37.628906 44.644531 L 337.628906 44.644531 L 337.628906 344.644531 L 37.628906 344.644531 Z M 37.628906 44.644531 " fill-opacity="1" fill-rule="nonzero"/></g></g><g fill="#004aad" fill-opacity="1"><g transform="translate(77.819118, 271.124172)"><g><path d="M 196.609375 -93.96875 C 196.785156 -79.226562 196.210938 -64.441406 194.890625 -49.609375 C 193.578125 -34.785156 192.222656 -20.003906 190.828125 -5.265625 C 190.296875 -0.347656 188.582031 3.640625 185.6875 6.703125 C 182.789062 9.773438 179.320312 11.796875 175.28125 12.765625 C 171.25 13.734375 167.300781 13.734375 163.4375 12.765625 C 159.582031 11.796875 156.46875 9.820312 154.09375 6.84375 C 151.726562 3.863281 150.8125 -0.171875 151.34375 -5.265625 C 152.570312 -16.847656 153.882812 -28.78125 155.28125 -41.0625 C 156.6875 -53.34375 157.609375 -65.625 158.046875 -77.90625 C 158.492188 -90.1875 157.660156 -102.117188 155.546875 -113.703125 C 155.203125 -115.804688 154.632812 -117.910156 153.84375 -120.015625 C 153.050781 -122.117188 152.566406 -124.226562 152.390625 -126.34375 C 150.460938 -124.0625 148.3125 -121.820312 145.9375 -119.625 C 143.570312 -117.425781 141.773438 -115.363281 140.546875 -113.4375 C 136.515625 -107.300781 133.398438 -100.941406 131.203125 -94.359375 C 129.015625 -87.773438 127.304688 -80.972656 126.078125 -73.953125 C 125.367188 -69.566406 123.523438 -66.234375 120.546875 -63.953125 C 117.566406 -61.671875 114.144531 -60.351562 110.28125 -60 C 106.414062 -59.65625 102.640625 -60.179688 98.953125 -61.578125 C 95.273438 -62.984375 92.296875 -65.175781 90.015625 -68.15625 C 87.734375 -71.144531 86.859375 -74.832031 87.390625 -79.21875 C 87.734375 -83.957031 88.035156 -88.738281 88.296875 -93.5625 C 88.566406 -98.394531 88.613281 -103.175781 88.4375 -107.90625 C 88.4375 -109.488281 88.476562 -111.726562 88.5625 -114.625 C 88.65625 -117.519531 88.566406 -120.367188 88.296875 -123.171875 C 88.035156 -125.984375 87.289062 -128.09375 86.0625 -129.5 C 85.71875 -129.84375 85.628906 -130.191406 85.796875 -130.546875 C 85.628906 -130.546875 85.546875 -130.546875 85.546875 -130.546875 C 85.546875 -130.546875 85.457031 -130.546875 85.28125 -130.546875 C 83.695312 -130.191406 82.160156 -128.65625 80.671875 -125.9375 C 79.179688 -123.21875 78.082031 -121.332031 77.375 -120.28125 C 75.445312 -117.125 73.738281 -113.832031 72.25 -110.40625 C 70.757812 -106.988281 69.398438 -103.613281 68.171875 -100.28125 C 62.378906 -84.488281 58.601562 -68.300781 56.84375 -51.71875 C 55.09375 -35.132812 53.691406 -18.507812 52.640625 -1.84375 C 52.285156 3.25 50.703125 7.285156 47.890625 10.265625 C 45.085938 13.242188 41.710938 15.257812 37.765625 16.3125 C 33.816406 17.363281 29.910156 17.363281 26.046875 16.3125 C 22.191406 15.257812 18.992188 13.242188 16.453125 10.265625 C 13.910156 7.285156 12.8125 3.25 13.15625 -1.84375 C 14.03125 -15.707031 15.082031 -29.523438 16.3125 -43.296875 C 17.539062 -57.066406 19.648438 -70.707031 22.640625 -84.21875 C 24.390625 -92.46875 26.710938 -101.109375 29.609375 -110.140625 C 32.503906 -119.179688 36.097656 -127.828125 40.390625 -136.078125 C 44.691406 -144.328125 49.914062 -151.519531 56.0625 -157.65625 C 61.851562 -163.269531 68.648438 -167.085938 76.453125 -169.109375 C 84.265625 -171.128906 91.898438 -170.953125 99.359375 -168.578125 C 106.816406 -166.210938 113.003906 -161.429688 117.921875 -154.234375 C 118.085938 -153.710938 118.347656 -153.1875 118.703125 -152.65625 C 119.054688 -152.132812 119.320312 -151.695312 119.5 -151.34375 C 124.582031 -157.3125 130.148438 -162.09375 136.203125 -165.6875 C 142.253906 -169.28125 148.523438 -170.898438 155.015625 -170.546875 C 161.515625 -170.203125 168.1875 -167.046875 175.03125 -161.078125 C 181.175781 -155.640625 185.738281 -149.144531 188.71875 -141.59375 C 191.695312 -134.050781 193.710938 -126.15625 194.765625 -117.90625 C 195.816406 -109.664062 196.429688 -101.6875 196.609375 -93.96875 Z M 196.609375 -93.96875 "/></g></g></g></svg>